<svg class="rose__icon" width="15" height="24" viewBox="0 0 15 24" preserveAspectRatio="meet" fill="none" xmlns="http://www.w3.org/2000/svg">
                            <path d="M8.5627 23C8.5627 21.0233 8.30131 19.0238 8.19276 17.0482C8.13797 16.051 8.00607 15.0814 7.88266 14.0941C7.86332 13.9394 7.91679 13.8637 7.7793 13.7949" stroke="black" stroke-width="1.17098" stroke-linecap="round"></path>
                            <path d="M12.8708 5.4703C12.8708 6.35889 12.8708 7.24748 12.8708 8.13606C12.8708 9.29859 12.5141 10.0693 11.8807 11.0194C11.055 12.258 10.1239 12.7611 8.75794 13.1303C8.05268 13.3209 6.97369 13.531 6.30979 13.1085C5.4531 12.5634 4.66951 12.0709 4.06293 11.199C3.50266 10.3936 2.99558 9.63673 2.61037 8.72362C2.06457 7.42988 2.39275 5.6014 2.39275 4.19727" stroke="black" stroke-width="1.17098" stroke-linecap="round"></path>
                            <path d="M2.88389 4.49201C3.13718 4.51734 3.38104 4.69251 3.6129 4.78579C4.2616 5.04676 4.89149 5.30937 5.52245 5.61272C6.33703 6.00435 7.21323 6.17039 8.09573 6.33084C9.1058 6.51449 10.4171 5.76741 11.2566 5.26998C12.1308 4.75193 13.1582 4.34952 13.6775 3.41483C13.8192 3.15973 14.2379 2.23732 13.8026 2.04386C12.4002 1.42057 10.8422 1.14537 9.29804 1.07005C8.03957 1.00866 7.1025 0.828458 5.99576 1.47807C4.9273 2.10521 3.64966 2.71625 3.03622 3.85549C2.90922 4.09135 2.75538 4.35428 2.66628 4.6117C2.6269 4.72547 2.49219 5.33341 2.49219 4.88372" stroke="black" stroke-width="1.17098" stroke-linecap="round"></path>
                            <path d="M13.0668 4.49233C11.1752 4.49233 9.12818 5.14404 7.38713 4.17679C7.14964 4.04485 6.95087 3.86912 6.75061 3.70892C6.39045 3.42079 6.82741 3.43488 7.04983 3.36074C7.77327 3.11959 8.30138 3.02344 9.05187 3.02344" stroke="black" stroke-width="1.17098" stroke-linecap="round"></path>
                            <path d="M8.66095 15.9497C8.32011 15.9497 7.97264 15.9694 7.63273 15.9443C7.10106 15.9049 6.57257 15.5872 6.05504 15.4601C5.00843 15.203 4.05594 15.0684 2.98125 15.0684C2.3787 15.0684 1.8963 15.3165 1.32195 15.4601C0.449844 15.6781 1.59374 15.993 1.88775 16.238C2.70113 16.9158 3.6063 17.6409 4.64599 17.9082C5.29161 18.0742 6.53758 18.5315 7.1431 18.0605C7.45246 17.8199 7.58481 17.5688 7.75786 17.2227C7.91089 16.9167 8.22767 16.7183 8.36718 16.4393" stroke="black" stroke-width="1.17098" stroke-linecap="round"></path>
                        </svg>